<svg width="58" height="58" viewBox="0 0 58 58" fill="none" xmlns="http://www.w3.org/2000/svg">
<g clip-path="url(#clip0_105_760)" filter="url(#filter0_d_105_760)">
<path d="M29 50C42.8071 50 54 38.8071 54 25C54 11.1929 42.8071 0 29 0C15.1929 0 4 11.1929 4 25C4 38.8071 15.1929 50 29 50Z" fill="#F0F0F0"/>
<path d="M46.4939 7.14297C41.9849 2.725 35.8112 0 29 0C26.8261 0 20.4654 2.725 15.9565 7.14297H46.4939Z" fill="#6DA544"/>
<path d="M29 21.4285H53.7449C53.3842 18.9065 52.6476 16.5062 51.5928 14.2856H27.9131L29 21.4285Z" fill="#6DA544"/>
<path d="M6.40713 35.7143H51.5925C52.6474 33.4938 53.384 31.0933 53.7447 28.5713H4.25488C4.61572 31.0934 5.35215 33.4939 6.40713 35.7143V35.7143Z" fill="#6DA544"/>
<path d="M11.5059 42.8569C16.0149 47.2749 22.1886 49.9999 28.9998 49.9999C35.811 49.9999 41.9847 47.2749 46.4938 42.8569H11.5059Z" fill="#6DA544"/>
<path d="M28.9998 0C16.4055 0 5.98809 9.31357 4.25488 21.4286H28.9998V0Z" fill="#D80027"/>
<path d="M16.5 19.1668L15.4131 16.993V12.6451L18.1305 10.4712L20.8479 12.6451V15.906L21.9348 14.819V16.993L19.7608 19.1668H16.5Z" fill="#F0F0F0"/>
<path d="M10.6536 12.5L10.9414 13.3857H11.8727L11.1192 13.9333L11.4071 14.8189L10.6536 14.2715L9.9001 14.8189L10.188 13.9333L9.43457 13.3857H10.3658L10.6536 12.5Z" fill="#F0F0F0"/>
<path d="M12.8274 10.3262L13.1152 11.2119H14.0466L13.2931 11.7595L13.5809 12.6451L12.8274 12.0978L12.074 12.6451L12.3619 11.7595L11.6084 11.2119H12.5396L12.8274 10.3262Z" fill="#F0F0F0"/>
<path d="M15.0013 8.15234L15.2891 9.03809H16.2202L15.4669 9.58564L15.7546 10.4713L15.0013 9.92393L14.2478 10.4713L14.5355 9.58564L13.7822 9.03809H14.7134L15.0013 8.15234Z" fill="#F0F0F0"/>
<path d="M25.6066 12.5L25.3188 13.3857H24.3877L25.141 13.9333L24.8532 14.8189L25.6066 14.2715L26.3602 14.8189L26.0724 13.9333L26.8257 13.3857H25.8945L25.6066 12.5Z" fill="#F0F0F0"/>
<path d="M23.4328 10.3262L23.145 11.2119H22.2139L22.9672 11.7595L22.6794 12.6451L23.4328 12.0978L24.1863 12.6451L23.8984 11.7595L24.6519 11.2119H23.7207L23.4328 10.3262Z" fill="#F0F0F0"/>
<path d="M21.2591 8.15234L20.9712 9.03809H20.04L20.7934 9.58564L20.5056 10.4713L21.2591 9.92393L22.0125 10.4713L21.7247 9.58564L22.478 9.03809H21.5469L21.2591 8.15234Z" fill="#F0F0F0"/>
<path d="M18.1302 7.06543L17.8423 7.95117H16.9111L17.6645 8.49863L17.3767 9.38428L18.1302 8.83691L18.8836 9.38428L18.5958 8.49863L19.3491 7.95117H18.418L18.1302 7.06543Z" fill="#F0F0F0"/>
</g>
<defs>
<filter id="filter0_d_105_760" x="0" y="0" width="58" height="58" filterUnits="userSpaceOnUse" color-interpolation-filters="sRGB">
<feFlood flood-opacity="0" result="BackgroundImageFix"/>
<feColorMatrix in="SourceAlpha" type="matrix" values="0 0 0 0 0 0 0 0 0 0 0 0 0 0 0 0 0 0 127 0" result="hardAlpha"/>
<feOffset dy="4"/>
<feGaussianBlur stdDeviation="2"/>
<feComposite in2="hardAlpha" operator="out"/>
<feColorMatrix type="matrix" values="0 0 0 0 0 0 0 0 0 0 0 0 0 0 0 0 0 0 0.25 0"/>
<feBlend mode="normal" in2="BackgroundImageFix" result="effect1_dropShadow_105_760"/>
<feBlend mode="normal" in="SourceGraphic" in2="effect1_dropShadow_105_760" result="shape"/>
</filter>
<clipPath id="clip0_105_760">
<rect width="50" height="50" fill="white" transform="translate(4)"/>
</clipPath>
</defs>
</svg>
